<svg width="202" height="80" viewBox="0 0 202 80" fill="none" xmlns="http://www.w3.org/2000/svg">
<rect x="12" y="20" width="40" height="40" rx="6" fill="url(#paint0_linear)"/>
<path d="M64.288 48.824L66.592 46.16C67.96 47.48 69.352 48.476 70.768 49.148C72.208 49.796 73.708 50.12 75.268 50.12C77.068 50.12 78.532 49.724 79.66 48.932C80.812 48.14 81.388 47.132 81.388 45.908C81.388 44.804 80.992 43.952 80.2 43.352C79.408 42.728 78.1 42.26 76.276 41.948L72.064 41.264C69.76 40.88 68.032 40.148 66.88 39.068C65.752 37.964 65.188 36.512 65.188 34.712C65.188 32.528 66.04 30.776 67.744 29.456C69.448 28.136 71.692 27.476 74.476 27.476C76.276 27.476 78.064 27.776 79.84 28.376C81.616 28.952 83.212 29.792 84.628 30.896L82.54 33.776C81.172 32.744 79.804 31.976 78.436 31.472C77.068 30.944 75.688 30.68 74.296 30.68C72.664 30.68 71.344 31.028 70.336 31.724C69.328 32.42 68.824 33.32 68.824 34.424C68.824 35.456 69.172 36.248 69.868 36.8C70.564 37.328 71.716 37.724 73.324 37.988L77.392 38.636C80.032 39.068 81.976 39.86 83.224 41.012C84.496 42.14 85.132 43.676 85.132 45.62C85.132 46.772 84.892 47.828 84.412 48.788C83.932 49.748 83.248 50.564 82.36 51.236C81.496 51.908 80.44 52.436 79.192 52.82C77.944 53.18 76.576 53.36 75.088 53.36C73.072 53.36 71.128 52.964 69.256 52.172C67.384 51.38 65.728 50.264 64.288 48.824ZM88.2021 53V27.8L91.8021 27.008V36.512C92.5221 35.792 93.3381 35.252 94.2501 34.892C95.1861 34.508 96.2061 34.316 97.3101 34.316C99.3981 34.316 101.114 34.988 102.458 36.332C103.802 37.652 104.474 39.368 104.474 41.48V53H100.874V42.092C100.874 40.652 100.454 39.524 99.6141 38.708C98.7981 37.868 97.7061 37.448 96.3381 37.448C95.3781 37.448 94.5021 37.652 93.7101 38.06C92.9421 38.468 92.3061 39.056 91.8021 39.824V53H88.2021ZM107.8 43.82C107.8 42.5 108.04 41.264 108.52 40.112C109.024 38.936 109.708 37.928 110.572 37.088C111.436 36.224 112.444 35.552 113.596 35.072C114.772 34.568 116.02 34.316 117.34 34.316C118.66 34.316 119.896 34.568 121.048 35.072C122.224 35.552 123.232 36.224 124.072 37.088C124.936 37.928 125.608 38.936 126.088 40.112C126.592 41.264 126.844 42.5 126.844 43.82C126.844 45.164 126.592 46.424 126.088 47.6C125.608 48.752 124.936 49.76 124.072 50.624C123.232 51.464 122.224 52.136 121.048 52.64C119.896 53.12 118.66 53.36 117.34 53.36C116.02 53.36 114.772 53.12 113.596 52.64C112.444 52.136 111.436 51.464 110.572 50.624C109.708 49.76 109.024 48.752 108.52 47.6C108.04 46.424 107.8 45.164 107.8 43.82ZM117.34 50.192C118.996 50.192 120.4 49.58 121.552 48.356C122.728 47.108 123.316 45.596 123.316 43.82C123.316 42.044 122.728 40.544 121.552 39.32C120.4 38.096 118.996 37.484 117.34 37.484C115.684 37.484 114.268 38.096 113.092 39.32C111.916 40.544 111.328 42.044 111.328 43.82C111.328 45.596 111.904 47.108 113.056 48.356C114.232 49.58 115.66 50.192 117.34 50.192ZM130.249 60.452V34.676H133.813V36.44C134.557 35.768 135.409 35.264 136.369 34.928C137.329 34.568 138.349 34.388 139.429 34.388C140.725 34.388 141.937 34.64 143.065 35.144C144.193 35.624 145.165 36.284 145.981 37.124C146.821 37.964 147.481 38.96 147.961 40.112C148.441 41.264 148.681 42.5 148.681 43.82C148.681 45.14 148.441 46.388 147.961 47.564C147.481 48.716 146.821 49.712 145.981 50.552C145.165 51.392 144.181 52.064 143.029 52.568C141.877 53.048 140.653 53.288 139.357 53.288C138.349 53.288 137.365 53.132 136.405 52.82C135.469 52.508 134.617 52.064 133.849 51.488V60.452H130.249ZM138.961 37.52C137.929 37.52 136.969 37.712 136.081 38.096C135.193 38.48 134.449 39.02 133.849 39.716V47.996C134.425 48.668 135.157 49.196 136.045 49.58C136.957 49.964 137.929 50.156 138.961 50.156C140.713 50.156 142.177 49.556 143.353 48.356C144.553 47.156 145.153 45.656 145.153 43.856C145.153 42.056 144.553 40.556 143.353 39.356C142.153 38.132 140.689 37.52 138.961 37.52ZM152.116 53V27.8L155.716 27.008V42.74L164.608 34.676H168.82L159.388 43.28L169.324 53H164.572L155.716 44.36V53H152.116ZM176.088 53.324C174.096 53.324 172.476 52.808 171.228 51.776C169.98 50.744 169.356 49.4 169.356 47.744C169.356 46.016 170.016 44.66 171.336 43.676C172.656 42.668 174.468 42.164 176.772 42.164C177.66 42.164 178.524 42.26 179.364 42.452C180.204 42.62 181.008 42.86 181.776 43.172V41.228C181.776 39.932 181.392 38.96 180.624 38.312C179.856 37.664 178.752 37.34 177.312 37.34C176.472 37.34 175.596 37.472 174.684 37.736C173.772 37.976 172.752 38.36 171.624 38.888L170.292 36.188C171.66 35.54 172.956 35.072 174.18 34.784C175.404 34.472 176.616 34.316 177.816 34.316C180.192 34.316 182.028 34.892 183.324 36.044C184.644 37.172 185.304 38.78 185.304 40.868V53H181.776V51.416C180.96 52.064 180.084 52.544 179.148 52.856C178.212 53.168 177.192 53.324 176.088 53.324ZM172.812 47.672C172.812 48.56 173.184 49.28 173.928 49.832C174.696 50.384 175.692 50.66 176.916 50.66C177.876 50.66 178.764 50.516 179.58 50.228C180.396 49.94 181.128 49.508 181.776 48.932V45.764C181.08 45.38 180.348 45.104 179.58 44.936C178.812 44.744 177.972 44.648 177.06 44.648C175.764 44.648 174.732 44.924 173.964 45.476C173.196 46.028 172.812 46.76 172.812 47.672Z" fill="#0C2146"/>
<path d="M21.9866 47.448L24.6426 44.12C25.944 45.2507 27.192 46.0827 28.3866 46.616C29.6026 47.128 30.8826 47.384 32.2266 47.384C33.6133 47.384 34.7226 47.128 35.5546 46.616C36.3866 46.104 36.8026 45.4213 36.8026 44.568C36.8026 43.8 36.5146 43.2027 35.9386 42.776C35.384 42.3493 34.4453 42.0293 33.1226 41.816L28.6746 41.048C26.7546 40.728 25.2933 40.056 24.2906 39.032C23.3093 38.008 22.8186 36.6853 22.8186 35.064C22.8186 32.9733 23.608 31.32 25.1866 30.104C26.7866 28.888 28.9413 28.28 31.6506 28.28C33.272 28.28 34.904 28.5573 36.5466 29.112C38.2106 29.6667 39.6613 30.4347 40.8986 31.416L38.4026 34.872C37.208 33.9547 36.0346 33.2827 34.8826 32.856C33.7306 32.408 32.5466 32.184 31.3306 32.184C30.0933 32.184 29.1013 32.4187 28.3546 32.888C27.608 33.336 27.2346 33.944 27.2346 34.712C27.2346 35.3947 27.48 35.928 27.9706 36.312C28.4613 36.696 29.2826 36.9733 30.4346 37.144L34.6586 37.848C36.8773 38.2107 38.5413 38.9253 39.6506 39.992C40.7813 41.0373 41.3466 42.424 41.3466 44.152C41.3466 46.328 40.4826 48.0667 38.7546 49.368C37.048 50.6693 34.7653 51.32 31.9066 51.32C30.1146 51.32 28.344 50.9787 26.5946 50.296C24.8666 49.6133 23.3306 48.664 21.9866 47.448Z" fill="white"/>
<defs>
<linearGradient id="paint0_linear" x1="12" y1="40" x2="52" y2="40" gradientUnits="userSpaceOnUse">
<stop stop-color="#2979FF"/>
<stop offset="1" stop-color="#4C589E"/>
</linearGradient>
</defs>
</svg>
